<svg version="1.1" xmlns="http://www.w3.org/2000/svg" xmlns:xlink="http://www.w3.org/1999/xlink" width="241.87671" height="241.87671" viewBox="0,0,241.87671,241.87671"><g transform="translate(-119.06164,-59.06164)"><g data-paper-data="{&quot;isPaintingLayer&quot;:true}" fill-rule="nonzero" stroke-linejoin="miter" stroke-miterlimit="10" stroke-dasharray="" stroke-dashoffset="0" style="mix-blend-mode: normal"><path d="M119.06164,180c0,-66.79241 54.14595,-120.93836 120.93836,-120.93836c66.79241,0 120.93836,54.14595 120.93836,120.93836c0,66.79241 -54.14595,120.93836 -120.93836,120.93836c-66.79241,0 -120.93836,-54.14595 -120.93836,-120.93836z" fill="#000000" stroke="none" stroke-width="0" stroke-linecap="butt"/><g fill="none" stroke="#976700" stroke-linecap="round"><g stroke-width="7.5"><path d="M142.20835,205.73426c0,0 11.36869,-48.91179 13.30086,-57.22467c0.53832,-2.31606 1.69914,-1.442 1.69914,-1.442c0,0 0.48018,-0.41396 1.54238,1.98121c2.74854,6.1977 14.79094,33.35213 14.79094,33.35213"/><path d="M173.54168,182.40093c0,0 12.4736,-28.12676 15.10675,-34.06425c0.93216,-2.10195 1.55991,-1.60242 1.55991,-1.60242c0,0 0.8767,-0.3289 1.45639,2.1651c1.98814,8.55363 13.21027,56.83491 13.21027,56.83491" data-paper-data="{&quot;index&quot;:null}"/></g><path d="M142.12501,205.81759h12.16666" stroke-width="7.5"/><path d="M204.79167,205.81759h-12.16666" stroke-width="7.5"/><g stroke-width="7.5"><path d="M173.62501,221.81759l-12.5,-29.33333"/><path d="M173.79168,221.48427l12.5,-29.33334" data-paper-data="{&quot;index&quot;:null}"/></g><path d="M238.98232,159.1801h16.21879v-12.76233c0,0 -32.96526,-8.40744 -32.70346,16.21879c0.21239,19.97903 36.89495,11.91453 37.00577,29.57993c0.15451,24.62984 -35.1446,14.82234 -35.1446,14.82234v-14.35762h14.6235z" stroke-width="7.5"/><path d="M298.74085,147.85216c0,0 0.60316,-1.56755 3.13083,-1.10765c9.37895,1.70646 31.48647,8.38017 31.6535,33.38895c0.22082,33.06442 -55.38433,28.85204 -55.38433,28.85204c0,0 -1,-52.2184 -1,-60.91066c0,-2.52568 3,-2.22268 3,-2.22268c0,0 2.15148,0.51904 2.95488,2.99266c0.45056,1.38726 4.8814,33.86421 6.0437,42.06227c0.47649,3.36082 1.53476,4.74508 1.53476,4.74508c0,0 1.1008,2.11219 3.13405,1.79658c4.80093,-0.74523 8.32326,-1.26785 13.43113,-2.14827c4.83474,-0.83334 12.68784,-5.42172 13.55046,-12.38729c2.26131,-18.26007 -15.52773,-20.43494 -21.30226,-24.33208c-1.093,-0.73765 -1.0779,-2.15905 -1.0779,-2.15905c0,0 -0.66704,-0.95543 -0.66743,-3.01407c-0.00029,-1.52956 -0.00059,-3.11611 -0.00076,-3.99988c-0.00025,-1.31471 0.99939,-1.55594 0.99939,-1.55594z" stroke-width="7"/><path d="M173.66169,221.78518" stroke-width="7.5"/><path d="M329.22883,221.88507h-155.33333" stroke-width="7.5"/></g><g fill="none" stroke="#eba100" stroke-linecap="round"><g stroke-width="7.5"><path d="M141.20835,203.23426c0,0 11.36869,-48.91179 13.30086,-57.22467c0.53832,-2.31606 1.69914,-1.442 1.69914,-1.442c0,0 0.48018,-0.41396 1.54238,1.98121c2.74854,6.1977 14.79094,33.35213 14.79094,33.35213"/><path d="M172.54168,179.90093c0,0 12.4736,-28.12676 15.10675,-34.06425c0.93216,-2.10195 1.55991,-1.60242 1.55991,-1.60242c0,0 0.8767,-0.3289 1.45639,2.1651c1.98814,8.55363 13.21027,56.83491 13.21027,56.83491" data-paper-data="{&quot;index&quot;:null}"/></g><path d="M141.12501,203.31759h12.16666" stroke-width="7.5"/><path d="M191.62501,203.31759h12.16666" stroke-width="7.5"/><g stroke-width="7.5"><path d="M172.62501,219.31759l-12.5,-29.33333"/><path d="M185.29168,189.65093l-12.5,29.33334" data-paper-data="{&quot;index&quot;:null}"/></g><path d="M237.98232,156.6801h16.21879v-12.76233c0,0 -32.96526,-8.40744 -32.70346,16.21879c0.21239,19.97903 36.89495,11.91453 37.00577,29.57993c0.15451,24.62984 -35.1446,14.82234 -35.1446,14.82234v-14.35762h14.6235z" stroke-width="7.5"/><path d="M297.74085,145.35216c0,0 0.60316,-1.56755 3.13083,-1.10765c9.37895,1.70646 31.48647,8.38017 31.6535,33.38895c0.22082,33.06442 -55.38433,28.85204 -55.38433,28.85204c0,0 -1,-52.2184 -1,-60.91066c0,-2.52568 3,-2.22268 3,-2.22268c0,0 2.15148,0.51904 2.95488,2.99266c0.45056,1.38726 4.8814,33.86421 6.0437,42.06227c0.47649,3.36082 1.53476,4.74508 1.53476,4.74508c0,0 1.1008,2.11219 3.13405,1.79658c4.80093,-0.74523 8.32326,-1.26785 13.43113,-2.14827c4.83474,-0.83334 12.68784,-5.42172 13.55046,-12.38729c2.26131,-18.26007 -15.52773,-20.43494 -21.30226,-24.33208c-1.093,-0.73765 -1.0779,-2.15905 -1.0779,-2.15905c0,0 -0.66704,-0.95543 -0.66743,-3.01407c-0.00029,-1.52956 -0.00059,-3.11611 -0.00076,-3.99988c-0.00025,-1.31471 0.99939,-1.55594 0.99939,-1.55594z" stroke-width="7"/><path d="M172.66169,219.28518" stroke-width="7.5"/><path d="M172.8955,219.38507h155.33333" stroke-width="7.5"/></g></g></g></svg>